STARTFONT 2.1
FONT -Angband-Angband 16x16x-Medium-R-Normal--16-120-100-100-C-80-ISO10646-1
SIZE 12 100 100
FONTBOUNDINGBOX 16 16 0 -3
COMMENT "Generated by fontforge, http://fontforge.sourceforge.net"
STARTPROPERTIES 20
FAMILY_NAME "Angband 16x16x"
FOUNDRY "Angband"
WEIGHT_NAME "Medium"
SLANT "R"
SETWIDTH_NAME "Normal"
FONT_VERSION "1.0"
COPYRIGHT "Mikolaj Konarski, Leon Marrick and others 2019; released under GNU GPL-2"
CAP_HEIGHT 13
PIXEL_SIZE 16
POINT_SIZE 120
X_HEIGHT 8
RESOLUTION_X 100
RESOLUTION_Y 100
SPACING "C"
AVERAGE_WIDTH 80
WEIGHT 10
QUAD_WIDTH 16
DEFAULT_CHAR 32
FONT_DESCENT 3
FONT_ASCENT 13
ENDPROPERTIES
CHARS 385
STARTCHAR U+0007
ENCODING 7
SWIDTH 1000 0
DWIDTH 16 0
BBX 2 1 7 4
BITMAP
C0
ENDCHAR
STARTCHAR U+0020
ENCODING 32
SWIDTH 1000 0
DWIDTH 16 0
BBX 1 1 15 -3
BITMAP
00
ENDCHAR
STARTCHAR U+0021
ENCODING 33
SWIDTH 1000 0
DWIDTH 16 0
BBX 4 12 6 -1
BITMAP
60
F0
F0
F0
F0
60
60
60
00
60
F0
60
ENDCHAR
STARTCHAR U+0022
ENCODING 34
SWIDTH 1000 0
DWIDTH 16 0
BBX 7 4 5 8
BITMAP
C6
C6
C6
C6
ENDCHAR
STARTCHAR U+0023
ENCODING 35
SWIDTH 1000 0
DWIDTH 16 0
BBX 12 12 2 -1
BITMAP
30C0
30C0
FFF0
FFF0
30C0
30C0
30C0
30C0
FFF0
FFF0
30C0
30C0
ENDCHAR
STARTCHAR U+0024
ENCODING 36
SWIDTH 1000 0
DWIDTH 16 0
BBX 12 13 2 -1
BITMAP
0600
3FC0
6660
C600
C600
6600
3FC0
0660
0630
0630
C660
7FC0
0600
ENDCHAR
STARTCHAR U+0025
ENCODING 37
SWIDTH 1000 0
DWIDTH 16 0
BBX 12 11 2 0
BITMAP
7060
D860
88C0
D980
7300
0600
0CE0
19B0
3110
61B0
60E0
ENDCHAR
STARTCHAR U+0026
ENCODING 38
SWIDTH 1000 0
DWIDTH 16 0
BBX 13 11 2 0
BITMAP
1F00
3980
70C0
3980
1F00
3F18
71B0
E0E0
E0E0
71F0
3F38
ENDCHAR
STARTCHAR U+0027
ENCODING 39
SWIDTH 1000 0
DWIDTH 16 0
BBX 4 5 6 7
BITMAP
60
F0
F0
60
C0
ENDCHAR
STARTCHAR U+0028
ENCODING 40
SWIDTH 1000 0
DWIDTH 16 0
BBX 7 11 5 0
BITMAP
1E
38
70
E0
E0
E0
E0
E0
70
38
1E
ENDCHAR
STARTCHAR U+0029
ENCODING 41
SWIDTH 1000 0
DWIDTH 16 0
BBX 7 11 4 0
BITMAP
F0
38
1C
0E
0E
0E
0E
0E
1C
38
F0
ENDCHAR
STARTCHAR U+002A
ENCODING 42
SWIDTH 1000 0
DWIDTH 16 0
BBX 9 8 4 1
BITMAP
6300
7700
3E00
FF80
FF80
3E00
7700
6300
ENDCHAR
STARTCHAR U+002B
ENCODING 43
SWIDTH 1000 0
DWIDTH 16 0
BBX 10 10 3 0
BITMAP
0C00
0C00
0C00
0C00
FFC0
FFC0
0C00
0C00
0C00
0C00
ENDCHAR
STARTCHAR U+002C
ENCODING 44
SWIDTH 1000 0
DWIDTH 16 0
BBX 5 5 5 -2
BITMAP
30
78
78
30
E0
ENDCHAR
STARTCHAR U+002D
ENCODING 45
SWIDTH 1000 0
DWIDTH 16 0
BBX 10 2 3 4
BITMAP
FFC0
FFC0
ENDCHAR
STARTCHAR U+002E
ENCODING 46
SWIDTH 1000 0
DWIDTH 16 0
BBX 4 4 6 -1
BITMAP
60
F0
F0
60
ENDCHAR
STARTCHAR U+002F
ENCODING 47
SWIDTH 1000 0
DWIDTH 16 0
BBX 12 11 2 0
BITMAP
0030
0070
00C0
0180
0300
0600
0C00
1800
3000
E000
C000
ENDCHAR
STARTCHAR U+0030
ENCODING 48
SWIDTH 1000 0
DWIDTH 16 0
BBX 12 11 2 0
BITMAP
3FC0
6060
C030
C030
C030
C630
C030
C030
C030
6060
3FC0
ENDCHAR
STARTCHAR U+0031
ENCODING 49
SWIDTH 1000 0
DWIDTH 16 0
BBX 13 11 2 0
BITMAP
0300
0700
3F00
0300
0300
0300
0300
0300
0300
0300
FFF8
ENDCHAR
STARTCHAR U+0032
ENCODING 50
SWIDTH 1000 0
DWIDTH 16 0
BBX 13 11 2 0
BITMAP
3FC0
E060
0030
0030
00E0
0780
1C00
7000
C000
C018
FFF0
ENDCHAR
STARTCHAR U+0033
ENCODING 51
SWIDTH 1000 0
DWIDTH 16 0
BBX 13 11 2 0
BITMAP
1FC0
7060
0030
0030
0060
0FE0
0030
0018
0018
E030
3FE0
ENDCHAR
STARTCHAR U+0034
ENCODING 52
SWIDTH 1000 0
DWIDTH 16 0
BBX 12 11 2 0
BITMAP
C030
C030
C030
C030
C030
7FF0
0030
0030
0030
0030
0030
ENDCHAR
STARTCHAR U+0035
ENCODING 53
SWIDTH 1000 0
DWIDTH 16 0
BBX 12 11 2 0
BITMAP
FFF0
C000
C000
C000
FFC0
0060
0030
0030
0030
E060
3FC0
ENDCHAR
STARTCHAR U+0036
ENCODING 54
SWIDTH 1000 0
DWIDTH 16 0
BBX 12 11 2 0
BITMAP
1FC0
3060
6000
C000
C000
FFC0
C060
C030
C030
6060
3FC0
ENDCHAR
STARTCHAR U+0037
ENCODING 55
SWIDTH 1000 0
DWIDTH 16 0
BBX 13 11 2 0
BITMAP
FFF8
0038
0070
00E0
01C0
0380
0700
0E00
1C00
3800
7000
ENDCHAR
STARTCHAR U+0038
ENCODING 56
SWIDTH 1000 0
DWIDTH 16 0
BBX 12 11 2 0
BITMAP
1F80
30C0
6060
6060
30C0
3FC0
6060
C030
C030
6060
3FC0
ENDCHAR
STARTCHAR U+0039
ENCODING 57
SWIDTH 1000 0
DWIDTH 16 0
BBX 12 11 2 0
BITMAP
3FC0
6060
C030
C030
6030
3FF0
0030
0030
0030
E060
3FC0
ENDCHAR
STARTCHAR U+003A
ENCODING 58
SWIDTH 1000 0
DWIDTH 16 0
BBX 4 10 6 -1
BITMAP
60
F0
F0
60
00
00
60
F0
F0
60
ENDCHAR
STARTCHAR U+003B
ENCODING 59
SWIDTH 1000 0
DWIDTH 16 0
BBX 5 11 5 -2
BITMAP
30
78
78
30
00
00
30
78
78
30
E0
ENDCHAR
STARTCHAR U+003C
ENCODING 60
SWIDTH 1000 0
DWIDTH 16 0
BBX 11 10 2 0
BITMAP
00E0
0380
0E00
3800
E000
E000
3800
0E00
0380
00E0
ENDCHAR
STARTCHAR U+003D
ENCODING 61
SWIDTH 1000 0
DWIDTH 16 0
BBX 10 6 3 2
BITMAP
FFC0
FFC0
0000
0000
FFC0
FFC0
ENDCHAR
STARTCHAR U+003E
ENCODING 62
SWIDTH 1000 0
DWIDTH 16 0
BBX 11 10 3 0
BITMAP
E000
3800
0E00
0380
00E0
00E0
0380
0E00
3800
E000
ENDCHAR
STARTCHAR U+003F
ENCODING 63
SWIDTH 1000 0
DWIDTH 16 0
BBX 11 12 3 -1
BITMAP
3F80
60C0
C060
0060
0060
01C0
0700
0C00
0000
0C00
1E00
0C00
ENDCHAR
STARTCHAR U+0040
ENCODING 64
SWIDTH 1000 0
DWIDTH 16 0
BBX 12 11 2 0
BITMAP
3FC0
7060
E030
C7F0
CC70
CC70
CC70
C7E0
E000
7060
3FC0
ENDCHAR
STARTCHAR U+0041
ENCODING 65
SWIDTH 1000 0
DWIDTH 16 0
BBX 15 11 1 0
BITMAP
1F80
0380
06C0
0440
0C60
0C60
1FF0
1830
3018
3018
FC7E
ENDCHAR
STARTCHAR U+0042
ENCODING 66
SWIDTH 1000 0
DWIDTH 16 0
BBX 13 11 1 0
BITMAP
FFC0
3060
3030
3030
3060
3FE0
3030
3018
3018
3030
FFE0
ENDCHAR
STARTCHAR U+0043
ENCODING 67
SWIDTH 1000 0
DWIDTH 16 0
BBX 13 11 2 0
BITMAP
3FE0
6030
C018
C000
C000
C000
C000
C000
C018
6030
3FE0
ENDCHAR
STARTCHAR U+0044
ENCODING 68
SWIDTH 1000 0
DWIDTH 16 0
BBX 13 11 1 0
BITMAP
FFC0
3060
3030
3018
3018
3018
3018
3018
3030
3060
FFC0
ENDCHAR
STARTCHAR U+0045
ENCODING 69
SWIDTH 1000 0
DWIDTH 16 0
BBX 14 11 1 0
BITMAP
FFF8
300C
3000
3000
3000
3FE0
3000
3000
3000
300C
FFF8
ENDCHAR
STARTCHAR U+0046
ENCODING 70
SWIDTH 1000 0
DWIDTH 16 0
BBX 14 11 1 0
BITMAP
FFF8
300C
3000
3000
3000
3FE0
3000
3000
3000
3000
FC00
ENDCHAR
STARTCHAR U+0047
ENCODING 71
SWIDTH 1000 0
DWIDTH 16 0
BBX 14 11 2 0
BITMAP
3FC0
6060
C030
C000
C000
C000
C3FC
C030
C030
6060
3FC0
ENDCHAR
STARTCHAR U+0048
ENCODING 72
SWIDTH 1000 0
DWIDTH 16 0
BBX 15 11 1 0
BITMAP
F83E
3018
3018
3018
3018
3FF8
3018
3018
3018
3018
F83E
ENDCHAR
STARTCHAR U+0049
ENCODING 73
SWIDTH 1000 0
DWIDTH 16 0
BBX 12 11 2 0
BITMAP
FFF0
0600
0600
0600
0600
0600
0600
0600
0600
0600
FFF0
ENDCHAR
STARTCHAR U+004A
ENCODING 74
SWIDTH 1000 0
DWIDTH 16 0
BBX 15 11 1 0
BITMAP
007E
0018
0018
0018
0018
0018
0018
0018
0018
E030
3FE0
ENDCHAR
STARTCHAR U+004B
ENCODING 75
SWIDTH 1000 0
DWIDTH 16 0
BBX 15 11 1 0
BITMAP
F87C
3030
3060
30C0
3180
3F80
30C0
3060
3030
3018
F83E
ENDCHAR
STARTCHAR U+004C
ENCODING 76
SWIDTH 1000 0
DWIDTH 16 0
BBX 15 11 1 0
BITMAP
FC00
3000
3000
3000
3000
3000
3000
3000
3000
3006
FFFC
ENDCHAR
STARTCHAR U+004D
ENCODING 77
SWIDTH 1000 0
DWIDTH 16 0
BBX 15 11 1 0
BITMAP
F01E
3838
3C78
36D8
3398
3118
3018
3018
3018
3018
F83E
ENDCHAR
STARTCHAR U+004E
ENCODING 78
SWIDTH 1000 0
DWIDTH 16 0
BBX 15 11 1 0
BITMAP
F07E
3018
3818
3C18
3618
3318
3198
30D8
3078
3038
FC18
ENDCHAR
STARTCHAR U+004F
ENCODING 79
SWIDTH 1000 0
DWIDTH 16 0
BBX 12 11 2 0
BITMAP
3FC0
6060
C030
C030
C030
C030
C030
C030
C030
6060
3FC0
ENDCHAR
STARTCHAR U+0050
ENCODING 80
SWIDTH 1000 0
DWIDTH 16 0
BBX 14 11 1 0
BITMAP
FFF0
3018
300C
300C
3018
3FF0
3000
3000
3000
3000
FC00
ENDCHAR
STARTCHAR U+0051
ENCODING 81
SWIDTH 1000 0
DWIDTH 16 0
BBX 12 12 2 -1
BITMAP
3FC0
6060
C030
C030
C030
C030
C030
C030
C730
63A0
3FC0
00E0
ENDCHAR
STARTCHAR U+0052
ENCODING 82
SWIDTH 1000 0
DWIDTH 16 0
BBX 15 11 1 0
BITMAP
FFE0
3030
3018
3018
3030
3FE0
3180
30C0
3060
3030
F87E
ENDCHAR
STARTCHAR U+0053
ENCODING 83
SWIDTH 1000 0
DWIDTH 16 0
BBX 13 11 2 0
BITMAP
3FE0
7030
E000
E000
7000
3FC0
0070
0038
0038
C070
7FC0
ENDCHAR
STARTCHAR U+0054
ENCODING 84
SWIDTH 1000 0
DWIDTH 16 0
BBX 14 11 1 0
BITMAP
7FF8
C30C
0300
0300
0300
0300
0300
0300
0300
0300
0FC0
ENDCHAR
STARTCHAR U+0055
ENCODING 85
SWIDTH 1000 0
DWIDTH 16 0
BBX 15 11 1 0
BITMAP
F83E
3018
3018
3018
3018
3018
3018
3018
3018
1830
0FE0
ENDCHAR
STARTCHAR U+0056
ENCODING 86
SWIDTH 1000 0
DWIDTH 16 0
BBX 15 11 1 0
BITMAP
F83E
3018
3018
1830
1830
0C60
0C60
06C0
06C0
0380
0380
ENDCHAR
STARTCHAR U+0057
ENCODING 87
SWIDTH 1000 0
DWIDTH 16 0
BBX 15 11 1 0
BITMAP
F83E
3018
3018
3018
3018
3118
3398
36D8
3C78
3838
3018
ENDCHAR
STARTCHAR U+0058
ENCODING 88
SWIDTH 1000 0
DWIDTH 16 0
BBX 14 11 1 0
BITMAP
F87C
3030
1860
0CC0
0780
0300
0780
0CC0
1860
3030
F87C
ENDCHAR
STARTCHAR U+0059
ENCODING 89
SWIDTH 1000 0
DWIDTH 16 0
BBX 14 11 1 0
BITMAP
F87C
3030
1860
0CC0
0780
0300
0300
0300
0300
0300
0FC0
ENDCHAR
STARTCHAR U+005A
ENCODING 90
SWIDTH 1000 0
DWIDTH 16 0
BBX 15 11 1 0
BITMAP
7FFC
C038
0070
00E0
01C0
0380
0700
0E00
1C00
3806
7FFC
ENDCHAR
STARTCHAR U+005B
ENCODING 91
SWIDTH 1000 0
DWIDTH 16 0
BBX 7 11 5 0
BITMAP
FE
C0
C0
C0
C0
C0
C0
C0
C0
C0
FE
ENDCHAR
STARTCHAR U+005C
ENCODING 92
SWIDTH 1000 0
DWIDTH 16 0
BBX 12 11 2 0
BITMAP
C000
E000
3000
1800
0C00
0600
0300
0180
00C0
0070
0030
ENDCHAR
STARTCHAR U+005D
ENCODING 93
SWIDTH 1000 0
DWIDTH 16 0
BBX 7 11 4 0
BITMAP
FE
06
06
06
06
06
06
06
06
06
FE
ENDCHAR
STARTCHAR U+005E
ENCODING 94
SWIDTH 1000 0
DWIDTH 16 0
BBX 12 6 2 5
BITMAP
0600
0F00
1980
30C0
6060
C030
ENDCHAR
STARTCHAR U+005F
ENCODING 95
SWIDTH 1000 0
DWIDTH 16 0
BBX 14 2 1 -1
BITMAP
FFFC
FFFC
ENDCHAR
STARTCHAR U+0060
ENCODING 96
SWIDTH 1000 0
DWIDTH 16 0
BBX 6 4 5 8
BITMAP
E0
70
38
1C
ENDCHAR
STARTCHAR U+0061
ENCODING 97
SWIDTH 1000 0
DWIDTH 16 0
BBX 15 8 1 0
BITMAP
3FF0
E018
0018
1FF8
3018
6018
6038
3FCE
ENDCHAR
STARTCHAR U+0062
ENCODING 98
SWIDTH 1000 0
DWIDTH 16 0
BBX 14 11 1 0
BITMAP
F000
3000
3000
3000
3FF0
3018
300C
300C
300C
380C
E7F8
ENDCHAR
STARTCHAR U+0063
ENCODING 99
SWIDTH 1000 0
DWIDTH 16 0
BBX 15 8 1 0
BITMAP
3FF0
6018
C000
C000
C000
C000
600E
3FF8
ENDCHAR
STARTCHAR U+0064
ENCODING 100
SWIDTH 1000 0
DWIDTH 16 0
BBX 14 11 2 0
BITMAP
00F0
0030
0030
0030
3FF0
6030
C030
C030
C030
C070
7F9C
ENDCHAR
STARTCHAR U+0065
ENCODING 101
SWIDTH 1000 0
DWIDTH 16 0
BBX 15 8 1 0
BITMAP
3FF0
6018
C018
FFF0
C000
C000
600E
3FF8
ENDCHAR
STARTCHAR U+0066
ENCODING 102
SWIDTH 1000 0
DWIDTH 16 0
BBX 14 10 1 0
BITMAP
03F8
0C0C
0C00
FFF0
0C00
0C00
0C00
0C00
0C00
7F80
ENDCHAR
STARTCHAR U+0067
ENCODING 103
SWIDTH 1000 0
DWIDTH 16 0
BBX 15 9 1 -1
BITMAP
1FCE
3038
6018
6018
3018
1FF8
0018
E018
3FF0
ENDCHAR
STARTCHAR U+0068
ENCODING 104
SWIDTH 1000 0
DWIDTH 16 0
BBX 15 11 1 0
BITMAP
F000
3000
3000
3000
3FF0
3018
3018
3018
3018
3018
FC1E
ENDCHAR
STARTCHAR U+0069
ENCODING 105
SWIDTH 1000 0
DWIDTH 16 0
BBX 15 11 1 0
BITMAP
0180
0180
0000
0000
3F80
0180
0180
0180
0180
0180
FFFE
ENDCHAR
STARTCHAR U+006A
ENCODING 106
SWIDTH 1000 0
DWIDTH 16 0
BBX 13 12 1 -1
BITMAP
0018
0018
0000
0000
07F8
0018
0018
0018
0018
0018
E018
3FF0
ENDCHAR
STARTCHAR U+006B
ENCODING 107
SWIDTH 1000 0
DWIDTH 16 0
BBX 15 11 1 0
BITMAP
F000
3000
3000
303C
3060
30C0
3180
3FC0
3060
3030
FC7E
ENDCHAR
STARTCHAR U+006C
ENCODING 108
SWIDTH 1000 0
DWIDTH 16 0
BBX 16 10 0 0
BITMAP
FE00
0600
0600
0600
0600
0600
0600
0600
0607
01FC
ENDCHAR
STARTCHAR U+006D
ENCODING 109
SWIDTH 1000 0
DWIDTH 16 0
BBX 15 8 1 0
BITMAP
FCE0
6318
6318
6318
6318
6318
6318
E31E
ENDCHAR
STARTCHAR U+006E
ENCODING 110
SWIDTH 1000 0
DWIDTH 16 0
BBX 15 8 1 0
BITMAP
E7E0
3830
3018
3018
3018
3018
3018
FC1E
ENDCHAR
STARTCHAR U+006F
ENCODING 111
SWIDTH 1000 0
DWIDTH 16 0
BBX 14 8 1 0
BITMAP
3FF0
6018
C00C
C00C
C00C
C00C
6018
3FF0
ENDCHAR
STARTCHAR U+0070
ENCODING 112
SWIDTH 1000 0
DWIDTH 16 0
BBX 14 11 1 -3
BITMAP
E7F0
3818
300C
300C
300C
300C
3FF8
3000
3000
3000
F000
ENDCHAR
STARTCHAR U+0071
ENCODING 113
SWIDTH 1000 0
DWIDTH 16 0
BBX 14 11 2 -3
BITMAP
3FB0
6070
C030
C030
C030
C030
7FF0
0030
0030
0030
003C
ENDCHAR
STARTCHAR U+0072
ENCODING 114
SWIDTH 1000 0
DWIDTH 16 0
BBX 15 8 1 0
BITMAP
F3F8
1C0E
1800
1800
1800
1800
1800
FF00
ENDCHAR
STARTCHAR U+0073
ENCODING 115
SWIDTH 1000 0
DWIDTH 16 0
BBX 15 8 1 0
BITMAP
1FF8
700E
7000
1FF0
0018
000C
E00C
3FF8
ENDCHAR
STARTCHAR U+0074
ENCODING 116
SWIDTH 1000 0
DWIDTH 16 0
BBX 15 10 1 0
BITMAP
0C00
0C00
0C00
FFF0
0C00
0C00
0C00
0C00
0C0E
03F8
ENDCHAR
STARTCHAR U+0075
ENCODING 117
SWIDTH 1000 0
DWIDTH 16 0
BBX 15 8 1 0
BITMAP
F078
3018
3018
3018
3018
3018
3038
1FCE
ENDCHAR
STARTCHAR U+0076
ENCODING 118
SWIDTH 1000 0
DWIDTH 16 0
BBX 15 8 1 0
BITMAP
F83E
3018
3018
1830
0C60
06C0
0380
0380
ENDCHAR
STARTCHAR U+0077
ENCODING 119
SWIDTH 1000 0
DWIDTH 16 0
BBX 15 8 1 0
BITMAP
F01E
3018
3018
3018
3398
3398
1EF0
0C60
ENDCHAR
STARTCHAR U+0078
ENCODING 120
SWIDTH 1000 0
DWIDTH 16 0
BBX 15 8 1 0
BITMAP
F83E
3018
0C60
0380
0380
0C60
3018
F83E
ENDCHAR
STARTCHAR U+0079
ENCODING 121
SWIDTH 1000 0
DWIDTH 16 0
BBX 15 9 1 -1
BITMAP
F07E
3018
3018
3018
3018
1FF8
0018
E018
3FF0
ENDCHAR
STARTCHAR U+007A
ENCODING 122
SWIDTH 1000 0
DWIDTH 16 0
BBX 15 8 1 0
BITMAP
7FFC
C01C
0070
01C0
0700
1C00
7006
7FFC
ENDCHAR
STARTCHAR U+007B
ENCODING 123
SWIDTH 1000 0
DWIDTH 16 0
BBX 8 11 4 0
BITMAP
0F
18
18
18
30
E0
30
18
18
18
0F
ENDCHAR
STARTCHAR U+007C
ENCODING 124
SWIDTH 1000 0
DWIDTH 16 0
BBX 2 12 7 -1
BITMAP
C0
C0
C0
C0
C0
C0
C0
C0
C0
C0
C0
C0
ENDCHAR
STARTCHAR U+007D
ENCODING 125
SWIDTH 1000 0
DWIDTH 16 0
BBX 8 11 4 0
BITMAP
F0
18
18
18
0C
07
0C
18
18
18
F0
ENDCHAR
STARTCHAR U+007E
ENCODING 126
SWIDTH 1000 0
DWIDTH 16 0
BBX 12 4 2 3
BITMAP
3C30
7E70
E7E0
C3C0
ENDCHAR
STARTCHAR U+00A0
ENCODING 160
SWIDTH 1000 0
DWIDTH 16 0
BBX 1 1 15 -3
BITMAP
00
ENDCHAR
STARTCHAR U+00A1
ENCODING 161
SWIDTH 1000 0
DWIDTH 16 0
BBX 4 12 6 -1
BITMAP
60
F0
60
00
60
60
60
F0
F0
F0
F0
60
ENDCHAR
STARTCHAR U+00A2
ENCODING 162
SWIDTH 1000 0
DWIDTH 16 0
BBX 12 12 2 -1
BITMAP
0600
0600
3FE0
6630
C600
C600
C600
C600
6630
3FE0
0600
0600
ENDCHAR
STARTCHAR U+00A3
ENCODING 163
SWIDTH 1000 0
DWIDTH 16 0
BBX 12 12 2 0
BITMAP
07C0
0FE0
1C70
1830
7F00
7F00
1800
7800
FC00
DE00
FFE0
73E0
ENDCHAR
STARTCHAR U+00A4
ENCODING 164
SWIDTH 1000 0
DWIDTH 16 0
BBX 10 10 3 0
BITMAP
0C00
2D00
5280
2D00
DEC0
DEC0
2D00
5280
2D00
0C00
ENDCHAR
STARTCHAR U+00A5
ENCODING 165
SWIDTH 1000 0
DWIDTH 16 0
BBX 12 12 2 0
BITMAP
C030
E070
70E0
39C0
1F80
7FE0
7FE0
0600
7FE0
7FE0
0600
0600
ENDCHAR
STARTCHAR U+00A6
ENCODING 166
SWIDTH 1000 0
DWIDTH 16 0
BBX 2 12 6 -1
BITMAP
C0
C0
C0
C0
C0
00
00
C0
C0
C0
C0
C0
ENDCHAR
STARTCHAR U+00A7
ENCODING 167
SWIDTH 1000 0
DWIDTH 16 0
BBX 10 14 3 -2
BITMAP
3F80
7FC0
E040
C000
FF00
BF80
80C0
C040
7F40
3FC0
00C0
81C0
FF80
7F00
ENDCHAR
STARTCHAR U+00A8
ENCODING 168
SWIDTH 1000 0
DWIDTH 16 0
BBX 6 2 5 11
BITMAP
CC
CC
ENDCHAR
STARTCHAR U+00A9
ENCODING 169
SWIDTH 1000 0
DWIDTH 16 0
BBX 12 11 2 0
BITMAP
3FC0
6060
CF30
D9B0
D830
D830
D830
D9B0
CF30
6060
3FC0
ENDCHAR
STARTCHAR U+00AA
ENCODING 170
SWIDTH 1000 0
DWIDTH 16 0
BBX 11 6 3 5
BITMAP
7F80
C180
C180
7FE0
0000
FFE0
ENDCHAR
STARTCHAR U+00AB
ENCODING 171
SWIDTH 1000 0
DWIDTH 16 0
BBX 13 5 2 3
BITMAP
0E38
38E0
E380
38E0
0E38
ENDCHAR
STARTCHAR U+00AC
ENCODING 172
SWIDTH 1000 0
DWIDTH 16 0
BBX 12 4 2 2
BITMAP
FFF0
0030
0030
0030
ENDCHAR
STARTCHAR U+00AE
ENCODING 174
SWIDTH 1000 0
DWIDTH 16 0
BBX 12 11 2 0
BITMAP
3FC0
6060
DF30
D1B0
D0B0
DF30
D630
D330
D1B0
6060
3FC0
ENDCHAR
STARTCHAR U+00AF
ENCODING 175
SWIDTH 1000 0
DWIDTH 16 0
BBX 5 2 6 11
BITMAP
F8
F8
ENDCHAR
STARTCHAR U+00B0
ENCODING 176
SWIDTH 1000 0
DWIDTH 16 0
BBX 8 4 4 8
BITMAP
7E
C3
C3
7E
ENDCHAR
STARTCHAR U+00B1
ENCODING 177
SWIDTH 1000 0
DWIDTH 16 0
BBX 10 11 3 1
BITMAP
0C00
0C00
0C00
FFC0
FFC0
0C00
0C00
0C00
0000
FFC0
FFC0
ENDCHAR
STARTCHAR U+00B2
ENCODING 178
SWIDTH 1000 0
DWIDTH 16 0
BBX 10 7 3 5
BITMAP
3F80
E0C0
01C0
0700
1C00
7000
FFC0
ENDCHAR
STARTCHAR U+00B3
ENCODING 179
SWIDTH 1000 0
DWIDTH 16 0
BBX 10 7 3 5
BITMAP
3F80
E0C0
00C0
0F80
00C0
E0C0
3F80
ENDCHAR
STARTCHAR U+00B4
ENCODING 180
SWIDTH 1000 0
DWIDTH 16 0
BBX 3 3 7 10
BITMAP
60
C0
80
ENDCHAR
STARTCHAR U+00B5
ENCODING 181
SWIDTH 1000 0
DWIDTH 16 0
BBX 14 11 2 -3
BITMAP
3030
3030
3030
3030
3030
3030
3070
3F9C
3000
3000
E000
ENDCHAR
STARTCHAR U+00B6
ENCODING 182
SWIDTH 1000 0
DWIDTH 16 0
BBX 12 11 2 0
BITMAP
7FF0
F8C0
F8C0
F8C0
78C0
18C0
18C0
18C0
18C0
18C0
18C0
ENDCHAR
STARTCHAR U+00B7
ENCODING 183
SWIDTH 1000 0
DWIDTH 16 0
BBX 2 2 7 4
BITMAP
C0
C0
ENDCHAR
STARTCHAR U+00B8
ENCODING 184
SWIDTH 1000 0
DWIDTH 16 0
BBX 4 3 7 -3
BITMAP
60
30
E0
ENDCHAR
STARTCHAR U+00B9
ENCODING 185
SWIDTH 1000 0
DWIDTH 16 0
BBX 10 7 3 5
BITMAP
0C00
3C00
0C00
0C00
0C00
0C00
FFC0
ENDCHAR
STARTCHAR U+00BA
ENCODING 186
SWIDTH 1000 0
DWIDTH 16 0
BBX 10 6 3 5
BITMAP
7F80
C0C0
C0C0
7F80
0000
FFC0
ENDCHAR
STARTCHAR U+00BB
ENCODING 187
SWIDTH 1000 0
DWIDTH 16 0
BBX 13 5 2 3
BITMAP
E380
38E0
0E38
38E0
E380
ENDCHAR
STARTCHAR U+00BC
ENCODING 188
SWIDTH 1000 0
DWIDTH 16 0
BBX 14 12 1 -1
BITMAP
3000
F000
3000
3038
30E0
0380
0E00
38CC
E0CC
00FC
000C
000C
ENDCHAR
STARTCHAR U+00BD
ENCODING 189
SWIDTH 1000 0
DWIDTH 16 0
BBX 14 12 1 -1
BITMAP
3000
F000
3000
3038
30E0
0380
0E00
38F8
E00C
0078
00C0
00FC
ENDCHAR
STARTCHAR U+00BE
ENCODING 190
SWIDTH 1000 0
DWIDTH 16 0
BBX 14 12 1 -1
BITMAP
F800
0C00
3C00
0C38
F8E0
0380
0E00
38CC
E0CC
00FC
000C
000C
ENDCHAR
STARTCHAR U+00BF
ENCODING 191
SWIDTH 1000 0
DWIDTH 16 0
BBX 11 12 3 -1
BITMAP
0C00
1E00
0C00
0000
0C00
0700
01C0
0060
0060
C060
60C0
3F80
ENDCHAR
STARTCHAR U+00C0
ENCODING 192
SWIDTH 1000 0
DWIDTH 16 0
BBX 15 13 1 0
BITMAP
0300
0180
0000
1F80
06C0
0440
0C60
0C60
1FF0
1830
3018
3018
FC7E
ENDCHAR
STARTCHAR U+00C1
ENCODING 193
SWIDTH 1000 0
DWIDTH 16 0
BBX 15 13 1 0
BITMAP
0180
0300
0000
1F80
06C0
0440
0C60
0C60
1FF0
1830
3018
3018
FC7E
ENDCHAR
STARTCHAR U+00C2
ENCODING 194
SWIDTH 1000 0
DWIDTH 16 0
BBX 15 13 1 0
BITMAP
0380
06C0
0000
1F80
06C0
0440
0C60
0C60
1FF0
1830
3018
3018
FC7E
ENDCHAR
STARTCHAR U+00C3
ENCODING 195
SWIDTH 1000 0
DWIDTH 16 0
BBX 15 13 1 0
BITMAP
06C0
0B80
0000
1F80
06C0
0440
0C60
0C60
1FF0
1830
3018
3018
FC7E
ENDCHAR
STARTCHAR U+00C4
ENCODING 196
SWIDTH 1000 0
DWIDTH 16 0
BBX 15 13 1 0
BITMAP
0C60
0C60
0000
1F80
06C0
0440
0C60
0C60
1FF0
1830
3018
3018
FC7E
ENDCHAR
STARTCHAR U+00C5
ENCODING 197
SWIDTH 1000 0
DWIDTH 16 0
BBX 15 13 1 0
BITMAP
0780
0300
0000
1F80
06C0
0440
0C60
0C60
1FF0
1830
3018
3018
FC7E
ENDCHAR
STARTCHAR U+00C6
ENCODING 198
SWIDTH 1000 0
DWIDTH 16 0
BBX 14 11 1 0
BITMAP
1FF8
078C
0D80
0980
1980
1FF0
3180
3180
6180
618C
F3F8
ENDCHAR
STARTCHAR U+00C7
ENCODING 199
SWIDTH 1000 0
DWIDTH 16 0
BBX 13 14 2 -3
BITMAP
3FE0
6030
C018
C000
C000
C000
C000
C000
C018
6030
3FE0
0300
0180
0700
ENDCHAR
STARTCHAR U+00C8
ENCODING 200
SWIDTH 1000 0
DWIDTH 16 0
BBX 14 13 1 0
BITMAP
0300
0180
0000
FFF8
300C
3000
3000
3FE0
3000
3000
3000
300C
FFF8
ENDCHAR
STARTCHAR U+00C9
ENCODING 201
SWIDTH 1000 0
DWIDTH 16 0
BBX 14 13 1 0
BITMAP
0180
0300
0000
FFF8
300C
3000
3000
3FE0
3000
3000
3000
300C
FFF8
ENDCHAR
STARTCHAR U+00CA
ENCODING 202
SWIDTH 1000 0
DWIDTH 16 0
BBX 14 13 1 0
BITMAP
0380
06C0
0000
FFF8
300C
3000
3000
3FE0
3000
3000
3000
300C
FFF8
ENDCHAR
STARTCHAR U+00CB
ENCODING 203
SWIDTH 1000 0
DWIDTH 16 0
BBX 14 13 1 0
BITMAP
0CC0
0CC0
0000
FFF8
300C
3000
3000
3FE0
3000
3000
3000
300C
FFF8
ENDCHAR
STARTCHAR U+00CC
ENCODING 204
SWIDTH 1000 0
DWIDTH 16 0
BBX 12 13 2 0
BITMAP
0C00
0600
0000
FFF0
0600
0600
0600
0600
0600
0600
0600
0600
FFF0
ENDCHAR
STARTCHAR U+00CD
ENCODING 205
SWIDTH 1000 0
DWIDTH 16 0
BBX 12 13 2 0
BITMAP
0300
0600
0000
FFF0
0600
0600
0600
0600
0600
0600
0600
0600
FFF0
ENDCHAR
STARTCHAR U+00CE
ENCODING 206
SWIDTH 1000 0
DWIDTH 16 0
BBX 12 13 2 0
BITMAP
0700
0D80
0000
FFF0
0600
0600
0600
0600
0600
0600
0600
0600
FFF0
ENDCHAR
STARTCHAR U+00CF
ENCODING 207
SWIDTH 1000 0
DWIDTH 16 0
BBX 12 13 2 0
BITMAP
1980
1980
0000
FFF0
0600
0600
0600
0600
0600
0600
0600
0600
FFF0
ENDCHAR
STARTCHAR U+00D0
ENCODING 208
SWIDTH 1000 0
DWIDTH 16 0
BBX 13 11 1 0
BITMAP
FFC0
3060
3030
3018
3018
FF18
3018
3018
3030
3060
FFC0
ENDCHAR
STARTCHAR U+00D1
ENCODING 209
SWIDTH 1000 0
DWIDTH 16 0
BBX 15 13 1 0
BITMAP
06C0
0B80
0000
F07E
3818
3C18
3618
3318
3198
30D8
3078
3038
FC18
ENDCHAR
STARTCHAR U+00D2
ENCODING 210
SWIDTH 1000 0
DWIDTH 16 0
BBX 12 13 2 0
BITMAP
0C00
0600
0000
3FC0
6060
C030
C030
C030
C030
C030
C030
6060
3FC0
ENDCHAR
STARTCHAR U+00D3
ENCODING 211
SWIDTH 1000 0
DWIDTH 16 0
BBX 12 13 2 0
BITMAP
0300
0600
0000
3FC0
6060
C030
C030
C030
C030
C030
C030
6060
3FC0
ENDCHAR
STARTCHAR U+00D4
ENCODING 212
SWIDTH 1000 0
DWIDTH 16 0
BBX 12 13 2 0
BITMAP
0700
0D80
0000
3FC0
6060
C030
C030
C030
C030
C030
C030
6060
3FC0
ENDCHAR
STARTCHAR U+00D5
ENCODING 213
SWIDTH 1000 0
DWIDTH 16 0
BBX 12 13 2 0
BITMAP
0D80
1700
0000
3FC0
6060
C030
C030
C030
C030
C030
C030
6060
3FC0
ENDCHAR
STARTCHAR U+00D6
ENCODING 214
SWIDTH 1000 0
DWIDTH 16 0
BBX 12 13 2 0
BITMAP
1980
1980
0000
3FC0
6060
C030
C030
C030
C030
C030
C030
6060
3FC0
ENDCHAR
STARTCHAR U+00D7
ENCODING 215
SWIDTH 1000 0
DWIDTH 16 0
BBX 8 8 4 1
BITMAP
C3
E7
7E
3C
3C
7E
E7
C3
ENDCHAR
STARTCHAR U+00D8
ENCODING 216
SWIDTH 1000 0
DWIDTH 16 0
BBX 12 11 2 0
BITMAP
3FB0
6060
C0F0
C1B0
C330
C630
CC30
D830
F030
6060
DFC0
ENDCHAR
STARTCHAR U+00D9
ENCODING 217
SWIDTH 1000 0
DWIDTH 16 0
BBX 15 13 1 0
BITMAP
0300
0180
0000
F83E
3018
3018
3018
3018
3018
3018
3018
1830
0FE0
ENDCHAR
STARTCHAR U+00DA
ENCODING 218
SWIDTH 1000 0
DWIDTH 16 0
BBX 15 13 1 0
BITMAP
0180
0300
0000
F83E
3018
3018
3018
3018
3018
3018
3018
1830
0FE0
ENDCHAR
STARTCHAR U+00DB
ENCODING 219
SWIDTH 1000 0
DWIDTH 16 0
BBX 15 13 1 0
BITMAP
0380
06C0
0000
F83E
3018
3018
3018
3018
3018
3018
3018
1830
0FE0
ENDCHAR
STARTCHAR U+00DC
ENCODING 220
SWIDTH 1000 0
DWIDTH 16 0
BBX 15 13 1 0
BITMAP
0C60
0C60
0000
F83E
3018
3018
3018
3018
3018
3018
3018
1830
0FE0
ENDCHAR
STARTCHAR U+00DD
ENCODING 221
SWIDTH 1000 0
DWIDTH 16 0
BBX 14 13 1 0
BITMAP
0180
0300
0000
F87C
3030
1860
0CC0
0780
0300
0300
0300
0300
0FC0
ENDCHAR
STARTCHAR U+00DE
ENCODING 222
SWIDTH 1000 0
DWIDTH 16 0
BBX 10 12 3 0
BITMAP
C000
C000
FF00
FF80
C1C0
C0C0
C0C0
C1C0
FF80
FF00
C000
C000
ENDCHAR
STARTCHAR U+00DF
ENCODING 223
SWIDTH 1000 0
DWIDTH 16 0
BBX 11 12 3 0
BITMAP
7FC0
FFE0
C0E0
C0E0
C1C0
C380
C700
C380
C1C0
C0E0
C3E0
CFC0
ENDCHAR
STARTCHAR U+00E0
ENCODING 224
SWIDTH 1000 0
DWIDTH 16 0
BBX 15 12 1 0
BITMAP
0600
0300
0100
0000
3FF0
E018
0018
1FF8
3018
6018
6038
3FCE
ENDCHAR
STARTCHAR U+00E1
ENCODING 225
SWIDTH 1000 0
DWIDTH 16 0
BBX 15 12 1 0
BITMAP
0180
0300
0200
0000
3FF0
E018
0018
1FF8
3018
6018
6038
3FCE
ENDCHAR
STARTCHAR U+00E2
ENCODING 226
SWIDTH 1000 0
DWIDTH 16 0
BBX 15 12 1 0
BITMAP
0100
0380
06C0
0000
3FF0
E018
0018
1FF8
3018
6018
6038
3FCE
ENDCHAR
STARTCHAR U+00E3
ENCODING 227
SWIDTH 1000 0
DWIDTH 16 0
BBX 15 11 1 0
BITMAP
06C0
0B80
0000
3FF0
E018
0018
1FF8
3018
6018
6038
3FCE
ENDCHAR
STARTCHAR U+00E4
ENCODING 228
SWIDTH 1000 0
DWIDTH 16 0
BBX 15 11 1 0
BITMAP
0CC0
0CC0
0000
3FF0
E018
0018
1FF8
3018
6018
6038
3FCE
ENDCHAR
STARTCHAR U+00E5
ENCODING 229
SWIDTH 1000 0
DWIDTH 16 0
BBX 15 12 1 0
BITMAP
0100
0280
0100
0000
3FF0
E018
0018
1FF8
3018
6018
6038
3FCE
ENDCHAR
STARTCHAR U+00E6
ENCODING 230
SWIDTH 1000 0
DWIDTH 16 0
BBX 14 8 1 0
BITMAP
7CF8
C78C
030C
3FF8
6300
C300
C38C
7CF8
ENDCHAR
STARTCHAR U+00E7
ENCODING 231
SWIDTH 1000 0
DWIDTH 16 0
BBX 15 11 1 -3
BITMAP
3FF0
6018
C000
C000
C000
C000
600E
3FF8
0180
00C0
0380
ENDCHAR
STARTCHAR U+00E8
ENCODING 232
SWIDTH 1000 0
DWIDTH 16 0
BBX 15 12 1 0
BITMAP
0600
0300
0100
0000
3FF0
6018
C018
FFF0
C000
C000
600E
3FF8
ENDCHAR
STARTCHAR U+00E9
ENCODING 233
SWIDTH 1000 0
DWIDTH 16 0
BBX 15 12 1 0
BITMAP
0180
0300
0200
0000
3FF0
6018
C018
FFF0
C000
C000
600E
3FF8
ENDCHAR
STARTCHAR U+00EA
ENCODING 234
SWIDTH 1000 0
DWIDTH 16 0
BBX 15 12 1 0
BITMAP
0100
0380
06C0
0000
3FF0
6018
C018
FFF0
C000
C000
600E
3FF8
ENDCHAR
STARTCHAR U+00EB
ENCODING 235
SWIDTH 1000 0
DWIDTH 16 0
BBX 15 11 1 0
BITMAP
0CC0
0CC0
0000
3FF0
6018
C018
FFF0
C000
C000
600E
3FF8
ENDCHAR
STARTCHAR U+00EC
ENCODING 236
SWIDTH 1000 0
DWIDTH 16 0
BBX 15 12 1 0
BITMAP
0600
0300
0100
0000
0000
3F80
0180
0180
0180
0180
0180
FFFE
ENDCHAR
STARTCHAR U+00ED
ENCODING 237
SWIDTH 1000 0
DWIDTH 16 0
BBX 15 12 1 0
BITMAP
00C0
0180
0100
0000
0000
3F80
0180
0180
0180
0180
0180
FFFE
ENDCHAR
STARTCHAR U+00EE
ENCODING 238
SWIDTH 1000 0
DWIDTH 16 0
BBX 15 12 1 0
BITMAP
0100
0380
06C0
0000
0000
3F80
0180
0180
0180
0180
0180
FFFE
ENDCHAR
STARTCHAR U+00EF
ENCODING 239
SWIDTH 1000 0
DWIDTH 16 0
BBX 15 11 1 0
BITMAP
0660
0660
0000
0000
3F80
0180
0180
0180
0180
0180
FFFE
ENDCHAR
STARTCHAR U+00F0
ENCODING 240
SWIDTH 1000 0
DWIDTH 16 0
BBX 12 12 2 0
BITMAP
0D80
0600
1B00
0180
00C0
3FE0
6070
C030
C030
C030
6060
3FC0
ENDCHAR
STARTCHAR U+00F1
ENCODING 241
SWIDTH 1000 0
DWIDTH 16 0
BBX 15 11 1 0
BITMAP
0360
05C0
0000
E7E0
3830
3018
3018
3018
3018
3018
FC1E
ENDCHAR
STARTCHAR U+00F2
ENCODING 242
SWIDTH 1000 0
DWIDTH 16 0
BBX 14 12 1 0
BITMAP
0600
0300
0100
0000
3FF0
6018
C00C
C00C
C00C
C00C
6018
3FF0
ENDCHAR
STARTCHAR U+00F3
ENCODING 243
SWIDTH 1000 0
DWIDTH 16 0
BBX 14 12 1 0
BITMAP
0180
0300
0200
0000
3FF0
6018
C00C
C00C
C00C
C00C
6018
3FF0
ENDCHAR
STARTCHAR U+00F4
ENCODING 244
SWIDTH 1000 0
DWIDTH 16 0
BBX 14 12 1 0
BITMAP
0100
0380
06C0
0000
3FF0
6018
C00C
C00C
C00C
C00C
6018
3FF0
ENDCHAR
STARTCHAR U+00F5
ENCODING 245
SWIDTH 1000 0
DWIDTH 16 0
BBX 14 11 1 0
BITMAP
06C0
0B80
0000
3FF0
6018
C00C
C00C
C00C
C00C
6018
3FF0
ENDCHAR
STARTCHAR U+00F6
ENCODING 246
SWIDTH 1000 0
DWIDTH 16 0
BBX 14 11 1 0
BITMAP
0CC0
0CC0
0000
3FF0
6018
C00C
C00C
C00C
C00C
6018
3FF0
ENDCHAR
STARTCHAR U+00F7
ENCODING 247
SWIDTH 1000 0
DWIDTH 16 0
BBX 10 8 3 1
BITMAP
0C00
0C00
0000
FFC0
FFC0
0000
0C00
0C00
ENDCHAR
STARTCHAR U+00F8
ENCODING 248
SWIDTH 1000 0
DWIDTH 16 0
BBX 13 8 2 0
BITMAP
3FE8
6038
C0F0
C398
CE18
7818
E030
BFE0
ENDCHAR
STARTCHAR U+00F9
ENCODING 249
SWIDTH 1000 0
DWIDTH 16 0
BBX 15 12 1 0
BITMAP
0600
0300
0100
0000
F078
3018
3018
3018
3018
3018
3038
1FCE
ENDCHAR
STARTCHAR U+00FA
ENCODING 250
SWIDTH 1000 0
DWIDTH 16 0
BBX 15 12 1 0
BITMAP
0180
0300
0200
0000
F078
3018
3018
3018
3018
3018
3038
1FCE
ENDCHAR
STARTCHAR U+00FB
ENCODING 251
SWIDTH 1000 0
DWIDTH 16 0
BBX 15 12 1 0
BITMAP
0100
0380
06C0
0000
F078
3018
3018
3018
3018
3018
3038
1FCE
ENDCHAR
STARTCHAR U+00FC
ENCODING 252
SWIDTH 1000 0
DWIDTH 16 0
BBX 15 11 1 0
BITMAP
0CC0
0CC0
0000
F078
3018
3018
3018
3018
3018
3038
1FCE
ENDCHAR
STARTCHAR U+00FD
ENCODING 253
SWIDTH 1000 0
DWIDTH 16 0
BBX 15 13 1 -1
BITMAP
0180
0300
0200
0000
F07E
3018
3018
3018
3018
1FF8
0018
E018
3FF0
ENDCHAR
STARTCHAR U+00FE
ENCODING 254
SWIDTH 1000 0
DWIDTH 16 0
BBX 10 12 3 -2
BITMAP
C000
C000
C000
FF00
FFC0
C0C0
C0C0
FFC0
FF00
C000
C000
C000
ENDCHAR
STARTCHAR U+00FF
ENCODING 255
SWIDTH 1000 0
DWIDTH 16 0
BBX 15 12 1 -1
BITMAP
0CC0
0CC0
0000
F07E
3018
3018
3018
3018
1FF8
0018
E018
3FF0
ENDCHAR
STARTCHAR U+0100
ENCODING 256
SWIDTH 1000 0
DWIDTH 16 0
BBX 15 13 1 0
BITMAP
07C0
07C0
0000
1F80
06C0
0440
0C60
0C60
1FF0
1830
3018
3018
FC7E
ENDCHAR
STARTCHAR U+0101
ENCODING 257
SWIDTH 1000 0
DWIDTH 16 0
BBX 15 11 1 0
BITMAP
07C0
07C0
0000
3FF0
E018
0018
1FF8
3018
6018
6038
3FCE
ENDCHAR
STARTCHAR U+0102
ENCODING 258
SWIDTH 1000 0
DWIDTH 16 0
BBX 15 13 1 0
BITMAP
0440
0380
0000
1F80
06C0
0440
0C60
0C60
1FF0
1830
3018
3018
FC7E
ENDCHAR
STARTCHAR U+0103
ENCODING 259
SWIDTH 1000 0
DWIDTH 16 0
BBX 15 12 1 0
BITMAP
0440
0380
0000
0000
3FF0
E018
0018
1FF8
3018
6018
6038
3FCE
ENDCHAR
STARTCHAR U+0104
ENCODING 260
SWIDTH 1000 0
DWIDTH 16 0
BBX 15 14 1 -3
BITMAP
1F80
0380
06C0
0440
0C60
0C60
1FF0
1830
3018
3018
FC7E
0018
0030
001C
ENDCHAR
STARTCHAR U+0105
ENCODING 261
SWIDTH 1000 0
DWIDTH 16 0
BBX 15 11 1 -3
BITMAP
3FF0
E018
0018
1FF8
3018
6018
6038
3FCE
0018
0030
001C
ENDCHAR
STARTCHAR U+0106
ENCODING 262
SWIDTH 1000 0
DWIDTH 16 0
BBX 13 13 2 0
BITMAP
0300
0600
0000
3FE0
6030
C018
C000
C000
C000
C000
C018
6030
3FE0
ENDCHAR
STARTCHAR U+0107
ENCODING 263
SWIDTH 1000 0
DWIDTH 16 0
BBX 15 12 1 0
BITMAP
0180
0300
0200
0000
3FF0
6018
C000
C000
C000
C000
600E
3FF8
ENDCHAR
STARTCHAR U+0108
ENCODING 264
SWIDTH 1000 0
DWIDTH 16 0
BBX 13 13 2 0
BITMAP
0700
0D80
0000
3FE0
6030
C018
C000
C000
C000
C000
C018
6030
3FE0
ENDCHAR
STARTCHAR U+0109
ENCODING 265
SWIDTH 1000 0
DWIDTH 16 0
BBX 15 12 1 0
BITMAP
0100
0380
06C0
0000
3FF0
6018
C000
C000
C000
C000
600E
3FF8
ENDCHAR
STARTCHAR U+010A
ENCODING 266
SWIDTH 1000 0
DWIDTH 16 0
BBX 13 13 2 0
BITMAP
0600
0600
0000
3FE0
6030
C018
C000
C000
C000
C000
C018
6030
3FE0
ENDCHAR
STARTCHAR U+010B
ENCODING 267
SWIDTH 1000 0
DWIDTH 16 0
BBX 15 11 1 0
BITMAP
0300
0300
0000
3FF0
6018
C000
C000
C000
C000
600E
3FF8
ENDCHAR
STARTCHAR U+010C
ENCODING 268
SWIDTH 1000 0
DWIDTH 16 0
BBX 13 13 2 0
BITMAP
0D80
0700
0000
3FE0
6030
C018
C000
C000
C000
C000
C018
6030
3FE0
ENDCHAR
STARTCHAR U+010D
ENCODING 269
SWIDTH 1000 0
DWIDTH 16 0
BBX 15 12 1 0
BITMAP
06C0
0380
0100
0000
3FF0
6018
C000
C000
C000
C000
600E
3FF8
ENDCHAR
STARTCHAR U+010E
ENCODING 270
SWIDTH 1000 0
DWIDTH 16 0
BBX 13 13 1 0
BITMAP
0D80
0700
0000
FFC0
3060
3030
3018
3018
3018
3018
3030
3060
FFC0
ENDCHAR
STARTCHAR U+010F
ENCODING 271
SWIDTH 1000 0
DWIDTH 16 0
BBX 15 12 1 0
BITMAP
0002
00F6
0034
0030
0030
3FF0
6030
C030
C030
C030
C070
7F9C
ENDCHAR
STARTCHAR U+0110
ENCODING 272
SWIDTH 1000 0
DWIDTH 16 0
BBX 13 11 1 0
BITMAP
FFC0
3060
3030
3018
3018
FF18
3018
3018
3030
3060
FFC0
ENDCHAR
STARTCHAR U+0111
ENCODING 273
SWIDTH 1000 0
DWIDTH 16 0
BBX 14 11 2 0
BITMAP
00F0
0030
03FC
0030
3FF0
6030
C030
C030
C030
C070
7F9C
ENDCHAR
STARTCHAR U+0112
ENCODING 274
SWIDTH 1000 0
DWIDTH 16 0
BBX 14 13 1 0
BITMAP
07C0
07C0
0000
FFF8
300C
3000
3000
3FE0
3000
3000
3000
300C
FFF8
ENDCHAR
STARTCHAR U+0113
ENCODING 275
SWIDTH 1000 0
DWIDTH 16 0
BBX 15 11 1 0
BITMAP
07C0
07C0
0000
3FF0
6018
C018
FFF0
C000
C000
600E
3FF8
ENDCHAR
STARTCHAR U+0114
ENCODING 276
SWIDTH 1000 0
DWIDTH 16 0
BBX 14 13 1 0
BITMAP
0440
0380
0000
FFF8
300C
3000
3000
3FE0
3000
3000
3000
300C
FFF8
ENDCHAR
STARTCHAR U+0115
ENCODING 277
SWIDTH 1000 0
DWIDTH 16 0
BBX 15 12 1 0
BITMAP
0440
0380
0000
0000
3FF0
6018
C018
FFF0
C000
C000
600E
3FF8
ENDCHAR
STARTCHAR U+0116
ENCODING 278
SWIDTH 1000 0
DWIDTH 16 0
BBX 14 13 1 0
BITMAP
0300
0300
0000
FFF8
300C
3000
3000
3FE0
3000
3000
3000
300C
FFF8
ENDCHAR
STARTCHAR U+0117
ENCODING 279
SWIDTH 1000 0
DWIDTH 16 0
BBX 15 11 1 0
BITMAP
0300
0300
0000
3FF0
6018
C018
FFF0
C000
C000
600E
3FF8
ENDCHAR
STARTCHAR U+0118
ENCODING 280
SWIDTH 1000 0
DWIDTH 16 0
BBX 14 14 1 -3
BITMAP
FFF8
300C
3000
3000
3000
3FE0
3000
3000
3000
300C
FFF8
0180
0300
01C0
ENDCHAR
STARTCHAR U+0119
ENCODING 281
SWIDTH 1000 0
DWIDTH 16 0
BBX 15 11 1 -3
BITMAP
3FF0
6018
C018
FFF0
C000
C000
600E
3FF8
0180
0300
01C0
ENDCHAR
STARTCHAR U+011A
ENCODING 282
SWIDTH 1000 0
DWIDTH 16 0
BBX 14 13 1 0
BITMAP
06C0
0380
0000
FFF8
300C
3000
3000
3FE0
3000
3000
3000
300C
FFF8
ENDCHAR
STARTCHAR U+011B
ENCODING 283
SWIDTH 1000 0
DWIDTH 16 0
BBX 15 12 1 0
BITMAP
06C0
0380
0100
0000
3FF0
6018
C018
FFF0
C000
C000
600E
3FF8
ENDCHAR
STARTCHAR U+011C
ENCODING 284
SWIDTH 1000 0
DWIDTH 16 0
BBX 14 13 2 0
BITMAP
0700
0D80
0000
3FC0
6060
C030
C000
C000
C3FC
C030
C030
6060
3FC0
ENDCHAR
STARTCHAR U+011D
ENCODING 285
SWIDTH 1000 0
DWIDTH 16 0
BBX 15 13 1 -1
BITMAP
0100
0380
06C0
0000
1FCE
3038
6018
6018
3018
1FF8
0018
E018
3FF0
ENDCHAR
STARTCHAR U+011E
ENCODING 286
SWIDTH 1000 0
DWIDTH 16 0
BBX 14 13 2 0
BITMAP
0880
0700
0000
3FC0
6060
C030
C000
C000
C3FC
C030
C030
6060
3FC0
ENDCHAR
STARTCHAR U+011F
ENCODING 287
SWIDTH 1000 0
DWIDTH 16 0
BBX 15 13 1 -1
BITMAP
0440
0380
0000
0000
1FCE
3038
6018
6018
3018
1FF8
0018
E018
3FF0
ENDCHAR
STARTCHAR U+0120
ENCODING 288
SWIDTH 1000 0
DWIDTH 16 0
BBX 14 13 2 0
BITMAP
0600
0600
0000
3FC0
6060
C030
C000
C000
C3FC
C030
C030
6060
3FC0
ENDCHAR
STARTCHAR U+0121
ENCODING 289
SWIDTH 1000 0
DWIDTH 16 0
BBX 15 13 1 -1
BITMAP
0300
0300
0000
0000
1FCE
3038
6018
6018
3018
1FF8
0018
E018
3FF0
ENDCHAR
STARTCHAR U+0122
ENCODING 290
SWIDTH 1000 0
DWIDTH 16 0
BBX 14 14 2 -3
BITMAP
3FC0
6060
C030
C000
C000
C000
C3FC
C030
C030
6060
3FC0
0600
0300
0E00
ENDCHAR
STARTCHAR U+0123
ENCODING 291
SWIDTH 1000 0
DWIDTH 16 0
BBX 15 13 1 -1
BITMAP
0180
0300
0300
0000
1FCE
3038
6018
6018
3018
1FF8
0018
E018
3FF0
ENDCHAR
STARTCHAR U+0124
ENCODING 292
SWIDTH 1000 0
DWIDTH 16 0
BBX 15 13 1 0
BITMAP
0380
06C0
0000
F83E
3018
3018
3018
3FF8
3018
3018
3018
3018
F83E
ENDCHAR
STARTCHAR U+0125
ENCODING 293
SWIDTH 1000 0
DWIDTH 16 0
BBX 15 13 1 0
BITMAP
0E00
1B00
0000
F000
3000
3000
3FF0
3018
3018
3018
3018
3018
FC1E
ENDCHAR
STARTCHAR U+0126
ENCODING 294
SWIDTH 1000 0
DWIDTH 16 0
BBX 15 11 1 0
BITMAP
F83E
3018
7FFC
3018
3018
3FF8
3018
3018
3018
3018
F83E
ENDCHAR
STARTCHAR U+0127
ENCODING 295
SWIDTH 1000 0
DWIDTH 16 0
BBX 15 11 1 0
BITMAP
F000
3000
FF00
3000
3FF0
3018
3018
3018
3018
3018
FC1E
ENDCHAR
STARTCHAR U+0128
ENCODING 296
SWIDTH 1000 0
DWIDTH 16 0
BBX 12 13 2 0
BITMAP
0D80
1700
0000
FFF0
0600
0600
0600
0600
0600
0600
0600
0600
FFF0
ENDCHAR
STARTCHAR U+0129
ENCODING 297
SWIDTH 1000 0
DWIDTH 16 0
BBX 15 11 1 0
BITMAP
06C0
0B80
0000
0000
3F80
0180
0180
0180
0180
0180
FFFE
ENDCHAR
STARTCHAR U+012A
ENCODING 298
SWIDTH 1000 0
DWIDTH 16 0
BBX 12 13 2 0
BITMAP
1F00
1F00
0000
FFF0
0600
0600
0600
0600
0600
0600
0600
0600
FFF0
ENDCHAR
STARTCHAR U+012B
ENCODING 299
SWIDTH 1000 0
DWIDTH 16 0
BBX 15 11 1 0
BITMAP
07C0
07C0
0000
0000
3F80
0180
0180
0180
0180
0180
FFFE
ENDCHAR
STARTCHAR U+012C
ENCODING 300
SWIDTH 1000 0
DWIDTH 16 0
BBX 12 13 2 0
BITMAP
1100
0E00
0000
FFF0
0600
0600
0600
0600
0600
0600
0600
0600
FFF0
ENDCHAR
STARTCHAR U+012D
ENCODING 301
SWIDTH 1000 0
DWIDTH 16 0
BBX 15 12 1 0
BITMAP
0440
0380
0000
0000
0000
3F80
0180
0180
0180
0180
0180
FFFE
ENDCHAR
STARTCHAR U+012E
ENCODING 302
SWIDTH 1000 0
DWIDTH 16 0
BBX 12 14 2 -3
BITMAP
FFF0
0600
0600
0600
0600
0600
0600
0600
0600
0600
FFF0
0600
0C00
0700
ENDCHAR
STARTCHAR U+012F
ENCODING 303
SWIDTH 1000 0
DWIDTH 16 0
BBX 15 14 1 -3
BITMAP
0180
0180
0000
0000
3F80
0180
0180
0180
0180
0180
FFFE
0180
0300
01C0
ENDCHAR
STARTCHAR U+0130
ENCODING 304
SWIDTH 1000 0
DWIDTH 16 0
BBX 12 13 2 0
BITMAP
0600
0600
0000
FFF0
0600
0600
0600
0600
0600
0600
0600
0600
FFF0
ENDCHAR
STARTCHAR U+0131
ENCODING 305
SWIDTH 1000 0
DWIDTH 16 0
BBX 15 7 1 0
BITMAP
3F80
0180
0180
0180
0180
0180
FFFE
ENDCHAR
STARTCHAR U+0134
ENCODING 308
SWIDTH 1000 0
DWIDTH 16 0
BBX 15 13 1 0
BITMAP
0038
006C
0000
007E
0018
0018
0018
0018
0018
0018
0018
E030
3FE0
ENDCHAR
STARTCHAR U+0135
ENCODING 309
SWIDTH 1000 0
DWIDTH 16 0
BBX 14 13 1 -1
BITMAP
0010
0038
006C
0000
0000
07F8
0018
0018
0018
0018
0018
E018
3FF0
ENDCHAR
STARTCHAR U+0136
ENCODING 310
SWIDTH 1000 0
DWIDTH 16 0
BBX 15 14 1 -3
BITMAP
F87C
3030
3060
30C0
3180
3F80
30C0
3060
3030
3018
F83E
0300
0300
0E00
ENDCHAR
STARTCHAR U+0137
ENCODING 311
SWIDTH 1000 0
DWIDTH 16 0
BBX 15 14 1 -3
BITMAP
F000
3000
3000
303C
3060
30C0
3180
3FC0
3060
3030
FC7E
0300
0300
0E00
ENDCHAR
STARTCHAR U+0138
ENCODING 312
SWIDTH 1000 0
DWIDTH 16 0
BBX 15 8 1 0
BITMAP
F03C
3060
30C0
3180
3FC0
3060
3030
FC7E
ENDCHAR
STARTCHAR U+0139
ENCODING 313
SWIDTH 1000 0
DWIDTH 16 0
BBX 15 13 1 0
BITMAP
0C00
1800
0000
FC00
3000
3000
3000
3000
3000
3000
3000
3006
FFFC
ENDCHAR
STARTCHAR U+013A
ENCODING 314
SWIDTH 1000 0
DWIDTH 16 0
BBX 16 13 0 0
BITMAP
0180
0300
0000
FE00
0600
0600
0600
0600
0600
0600
0600
0607
01FC
ENDCHAR
STARTCHAR U+013B
ENCODING 315
SWIDTH 1000 0
DWIDTH 16 0
BBX 15 14 1 -3
BITMAP
FC00
3000
3000
3000
3000
3000
3000
3000
3000
3006
FFFC
0180
00C0
0380
ENDCHAR
STARTCHAR U+013C
ENCODING 316
SWIDTH 1000 0
DWIDTH 16 0
BBX 16 13 0 -3
BITMAP
FE00
0600
0600
0600
0600
0600
0600
0600
0607
01FC
00C0
0060
01C0
ENDCHAR
STARTCHAR U+013D
ENCODING 317
SWIDTH 1000 0
DWIDTH 16 0
BBX 15 13 1 0
BITMAP
0040
00C0
FC80
3000
3000
3000
3000
3000
3000
3000
3000
3006
FFFC
ENDCHAR
STARTCHAR U+013E
ENCODING 318
SWIDTH 1000 0
DWIDTH 16 0
BBX 16 12 0 0
BITMAP
0020
0060
FE40
0600
0600
0600
0600
0600
0600
0600
0607
01FC
ENDCHAR
STARTCHAR U+013F
ENCODING 319
SWIDTH 1000 0
DWIDTH 16 0
BBX 15 11 1 0
BITMAP
FC00
3000
3000
3000
3180
3180
3000
3000
3000
3006
FFFC
ENDCHAR
STARTCHAR U+0140
ENCODING 320
SWIDTH 1000 0
DWIDTH 16 0
BBX 16 10 0 0
BITMAP
FE00
0600
0600
0630
0630
0600
0600
0600
0607
01FC
ENDCHAR
STARTCHAR U+0141
ENCODING 321
SWIDTH 1000 0
DWIDTH 16 0
BBX 15 11 1 0
BITMAP
FC00
3000
3000
3180
3700
3C00
7000
F000
3000
3006
FFFC
ENDCHAR
STARTCHAR U+0142
ENCODING 322
SWIDTH 1000 0
DWIDTH 16 0
BBX 16 10 0 0
BITMAP
FE00
0600
0600
06C0
0780
0E00
1E00
0600
0607
01FC
ENDCHAR
STARTCHAR U+0143
ENCODING 323
SWIDTH 1000 0
DWIDTH 16 0
BBX 15 13 1 0
BITMAP
0180
0300
0000
F07E
3818
3C18
3618
3318
3198
30D8
3078
3038
FC18
ENDCHAR
STARTCHAR U+0144
ENCODING 324
SWIDTH 1000 0
DWIDTH 16 0
BBX 15 12 1 0
BITMAP
00C0
0180
0100
0000
E7E0
3830
3018
3018
3018
3018
3018
FC1E
ENDCHAR
STARTCHAR U+0145
ENCODING 325
SWIDTH 1000 0
DWIDTH 16 0
BBX 15 14 1 -3
BITMAP
F07E
3018
3818
3C18
3618
3318
3198
30D8
3078
3038
FC18
0030
0018
0070
ENDCHAR
STARTCHAR U+0146
ENCODING 326
SWIDTH 1000 0
DWIDTH 16 0
BBX 15 11 1 -3
BITMAP
E7E0
3830
3018
3018
3018
3018
3018
FC1E
0030
0018
0070
ENDCHAR
STARTCHAR U+0147
ENCODING 327
SWIDTH 1000 0
DWIDTH 16 0
BBX 15 13 1 0
BITMAP
06C0
0380
0000
F07E
3818
3C18
3618
3318
3198
30D8
3078
3038
FC18
ENDCHAR
STARTCHAR U+0148
ENCODING 328
SWIDTH 1000 0
DWIDTH 16 0
BBX 15 12 1 0
BITMAP
06C0
0380
0100
0000
E7E0
3830
3018
3018
3018
3018
3018
FC1E
ENDCHAR
STARTCHAR U+0149
ENCODING 329
SWIDTH 1000 0
DWIDTH 16 0
BBX 15 13 1 0
BITMAP
6000
F000
6000
C000
0000
E7E0
3830
3018
3018
3018
3018
3018
FC1E
ENDCHAR
STARTCHAR U+014A
ENCODING 330
SWIDTH 1000 0
DWIDTH 16 0
BBX 15 13 1 -2
BITMAP
F07E
3018
3818
3C18
3618
3318
3198
30D8
3078
3038
FC18
0030
00E0
ENDCHAR
STARTCHAR U+014B
ENCODING 331
SWIDTH 1000 0
DWIDTH 16 0
BBX 15 10 1 -2
BITMAP
E7E0
3830
3018
3018
3018
3018
3018
FC1E
0030
00E0
ENDCHAR
STARTCHAR U+014C
ENCODING 332
SWIDTH 1000 0
DWIDTH 16 0
BBX 12 13 2 0
BITMAP
0F80
0F80
0000
3FC0
6060
C030
C030
C030
C030
C030
C030
6060
3FC0
ENDCHAR
STARTCHAR U+014D
ENCODING 333
SWIDTH 1000 0
DWIDTH 16 0
BBX 14 11 1 0
BITMAP
07C0
07C0
0000
3FF0
6018
C00C
C00C
C00C
C00C
6018
3FF0
ENDCHAR
STARTCHAR U+014E
ENCODING 334
SWIDTH 1000 0
DWIDTH 16 0
BBX 12 13 2 0
BITMAP
0880
0700
0000
3FC0
6060
C030
C030
C030
C030
C030
C030
6060
3FC0
ENDCHAR
STARTCHAR U+014F
ENCODING 335
SWIDTH 1000 0
DWIDTH 16 0
BBX 14 12 1 0
BITMAP
0440
0380
0000
0000
3FF0
6018
C00C
C00C
C00C
C00C
6018
3FF0
ENDCHAR
STARTCHAR U+0150
ENCODING 336
SWIDTH 1000 0
DWIDTH 16 0
BBX 12 13 2 0
BITMAP
0D80
1B00
0000
3FC0
6060
C030
C030
C030
C030
C030
C030
6060
3FC0
ENDCHAR
STARTCHAR U+0151
ENCODING 337
SWIDTH 1000 0
DWIDTH 16 0
BBX 14 12 1 0
BITMAP
0660
0CC0
0880
0000
3FF0
6018
C00C
C00C
C00C
C00C
6018
3FF0
ENDCHAR
STARTCHAR U+0152
ENCODING 338
SWIDTH 1000 0
DWIDTH 16 0
BBX 13 11 2 0
BITMAP
3FF0
6318
C300
C300
C300
C3E0
C300
C300
C300
6318
3FF0
ENDCHAR
STARTCHAR U+0153
ENCODING 339
SWIDTH 1000 0
DWIDTH 16 0
BBX 14 8 1 0
BITMAP
3CF8
678C
C30C
C3F8
C300
C300
678C
3CF8
ENDCHAR
STARTCHAR U+0154
ENCODING 340
SWIDTH 1000 0
DWIDTH 16 0
BBX 15 13 1 0
BITMAP
0180
0300
0000
FFE0
3030
3018
3018
3FF0
3180
30C0
3060
3030
F87E
ENDCHAR
STARTCHAR U+0155
ENCODING 341
SWIDTH 1000 0
DWIDTH 16 0
BBX 15 12 1 0
BITMAP
0060
00C0
0080
0000
F3F8
1C0E
1800
1800
1800
1800
1800
FF00
ENDCHAR
STARTCHAR U+0156
ENCODING 342
SWIDTH 1000 0
DWIDTH 16 0
BBX 15 14 1 -3
BITMAP
FFE0
3030
3018
3018
3030
3FE0
3180
30C0
3060
3030
F87E
0300
0300
0E00
ENDCHAR
STARTCHAR U+0157
ENCODING 343
SWIDTH 1000 0
DWIDTH 16 0
BBX 15 11 1 -3
BITMAP
F3F8
1C0E
1800
1800
1800
1800
1800
FF00
1800
0C00
3800
ENDCHAR
STARTCHAR U+0158
ENCODING 344
SWIDTH 1000 0
DWIDTH 16 0
BBX 15 13 1 0
BITMAP
06C0
0380
0000
FFE0
3030
3018
3018
3FF0
3180
30C0
3060
3030
F87E
ENDCHAR
STARTCHAR U+0159
ENCODING 345
SWIDTH 1000 0
DWIDTH 16 0
BBX 15 12 1 0
BITMAP
0360
01C0
0080
0000
F3F8
1C0E
1800
1800
1800
1800
1800
FF00
ENDCHAR
STARTCHAR U+015A
ENCODING 346
SWIDTH 1000 0
DWIDTH 16 0
BBX 13 13 2 0
BITMAP
0300
0600
0000
3FE0
6030
C000
C000
7FC0
0070
0038
0038
C070
7FC0
ENDCHAR
STARTCHAR U+015B
ENCODING 347
SWIDTH 1000 0
DWIDTH 16 0
BBX 15 12 1 0
BITMAP
00C0
0180
0100
0000
1FF8
700E
7000
1FF0
0018
000C
E00C
3FF8
ENDCHAR
STARTCHAR U+015C
ENCODING 348
SWIDTH 1000 0
DWIDTH 16 0
BBX 13 13 2 0
BITMAP
0700
0D80
0000
3FE0
6030
C000
C000
7FC0
0070
0038
0038
C070
7FC0
ENDCHAR
STARTCHAR U+015D
ENCODING 349
SWIDTH 1000 0
DWIDTH 16 0
BBX 15 12 1 0
BITMAP
0080
01C0
0360
0000
1FF8
700E
7000
1FF0
0018
000C
E00C
3FF8
ENDCHAR
STARTCHAR U+015E
ENCODING 350
SWIDTH 1000 0
DWIDTH 16 0
BBX 13 14 2 -3
BITMAP
3FE0
7030
E000
E000
7000
3FC0
0070
0038
0038
C070
7FC0
0600
0300
0E00
ENDCHAR
STARTCHAR U+015F
ENCODING 351
SWIDTH 1000 0
DWIDTH 16 0
BBX 15 11 1 -3
BITMAP
1FF8
700E
7000
1FF0
0018
000C
E00C
3FF8
0180
00C0
0380
ENDCHAR
STARTCHAR U+0160
ENCODING 352
SWIDTH 1000 0
DWIDTH 16 0
BBX 13 13 2 0
BITMAP
0D80
0700
0000
3FE0
6030
C000
C000
7FC0
0070
0038
0038
C070
7FC0
ENDCHAR
STARTCHAR U+0161
ENCODING 353
SWIDTH 1000 0
DWIDTH 16 0
BBX 15 12 1 0
BITMAP
06C0
0380
0100
0000
1FF8
700E
7000
1FF0
0018
000C
E00C
3FF8
ENDCHAR
STARTCHAR U+0162
ENCODING 354
SWIDTH 1000 0
DWIDTH 16 0
BBX 14 14 1 -3
BITMAP
7FF8
C30C
0300
0300
0300
0300
0300
0300
0300
0300
0FC0
0300
0180
0700
ENDCHAR
STARTCHAR U+0163
ENCODING 355
SWIDTH 1000 0
DWIDTH 16 0
BBX 15 13 1 -3
BITMAP
0C00
0C00
0C00
FFF0
0C00
0C00
0C00
0C00
0C0E
03F8
00C0
0060
01C0
ENDCHAR
STARTCHAR U+0164
ENCODING 356
SWIDTH 1000 0
DWIDTH 16 0
BBX 14 13 1 0
BITMAP
06C0
0380
0000
7FF8
C30C
0300
0300
0300
0300
0300
0300
0300
0FC0
ENDCHAR
STARTCHAR U+0165
ENCODING 357
SWIDTH 1000 0
DWIDTH 16 0
BBX 15 12 1 0
BITMAP
0040
00C0
0C80
0C00
0C00
FFF0
0C00
0C00
0C00
0C00
0C0E
03F8
ENDCHAR
STARTCHAR U+0166
ENCODING 358
SWIDTH 1000 0
DWIDTH 16 0
BBX 14 11 1 0
BITMAP
7FF8
C30C
0300
0300
1FE0
0300
0300
0300
0300
0300
0FC0
ENDCHAR
STARTCHAR U+0167
ENCODING 359
SWIDTH 1000 0
DWIDTH 16 0
BBX 15 10 1 0
BITMAP
0C00
0C00
0C00
FFF0
0C00
0C00
3FC0
0C00
0C0E
03F8
ENDCHAR
STARTCHAR U+0168
ENCODING 360
SWIDTH 1000 0
DWIDTH 16 0
BBX 15 13 1 0
BITMAP
0360
05C0
0000
F83E
3018
3018
3018
3018
3018
3018
3018
1830
0FE0
ENDCHAR
STARTCHAR U+0169
ENCODING 361
SWIDTH 1000 0
DWIDTH 16 0
BBX 15 11 1 0
BITMAP
06C0
0B80
0000
F078
3018
3018
3018
3018
3018
3038
1FCE
ENDCHAR
STARTCHAR U+016A
ENCODING 362
SWIDTH 1000 0
DWIDTH 16 0
BBX 15 13 1 0
BITMAP
07C0
07C0
0000
F83E
3018
3018
3018
3018
3018
3018
3018
1830
0FE0
ENDCHAR
STARTCHAR U+016B
ENCODING 363
SWIDTH 1000 0
DWIDTH 16 0
BBX 15 11 1 0
BITMAP
07C0
07C0
0000
F078
3018
3018
3018
3018
3018
3038
1FCE
ENDCHAR
STARTCHAR U+016C
ENCODING 364
SWIDTH 1000 0
DWIDTH 16 0
BBX 15 13 1 0
BITMAP
0440
0380
0000
F83E
3018
3018
3018
3018
3018
3018
3018
1830
0FE0
ENDCHAR
STARTCHAR U+016D
ENCODING 365
SWIDTH 1000 0
DWIDTH 16 0
BBX 15 12 1 0
BITMAP
0440
0380
0000
0000
F078
3018
3018
3018
3018
3018
3038
1FCE
ENDCHAR
STARTCHAR U+016E
ENCODING 366
SWIDTH 1000 0
DWIDTH 16 0
BBX 15 13 1 0
BITMAP
0780
0300
0000
F83E
3018
3018
3018
3018
3018
3018
3018
1830
0FE0
ENDCHAR
STARTCHAR U+016F
ENCODING 367
SWIDTH 1000 0
DWIDTH 16 0
BBX 15 12 1 0
BITMAP
0200
0500
0200
0000
F078
3018
3018
3018
3018
3018
3038
1FCE
ENDCHAR
STARTCHAR U+0170
ENCODING 368
SWIDTH 1000 0
DWIDTH 16 0
BBX 15 13 1 0
BITMAP
0360
06C0
0000
F83E
3018
3018
3018
3018
3018
3018
3018
1830
0FE0
ENDCHAR
STARTCHAR U+0171
ENCODING 369
SWIDTH 1000 0
DWIDTH 16 0
BBX 15 12 1 0
BITMAP
0660
0CC0
0880
0000
F078
3018
3018
3018
3018
3018
3038
1FCE
ENDCHAR
STARTCHAR U+0172
ENCODING 370
SWIDTH 1000 0
DWIDTH 16 0
BBX 15 14 1 -3
BITMAP
F83E
3018
3018
3018
3018
3018
3018
3018
3018
1830
0FE0
0180
0300
01C0
ENDCHAR
STARTCHAR U+0173
ENCODING 371
SWIDTH 1000 0
DWIDTH 16 0
BBX 15 11 1 -3
BITMAP
F078
3018
3018
3018
3018
3018
3038
1FCE
0018
0030
001C
ENDCHAR
STARTCHAR U+0174
ENCODING 372
SWIDTH 1000 0
DWIDTH 16 0
BBX 15 13 1 0
BITMAP
0380
06C0
0000
F83E
3018
3018
3018
3118
3398
36D8
3C78
3838
3018
ENDCHAR
STARTCHAR U+0175
ENCODING 373
SWIDTH 1000 0
DWIDTH 16 0
BBX 15 12 1 0
BITMAP
0100
0380
06C0
0000
F01E
3018
3018
3018
3398
3398
1EF0
0C60
ENDCHAR
STARTCHAR U+0176
ENCODING 374
SWIDTH 1000 0
DWIDTH 16 0
BBX 14 13 1 0
BITMAP
0380
06C0
0000
F87C
3030
1860
0CC0
0780
0300
0300
0300
0300
0FC0
ENDCHAR
STARTCHAR U+0177
ENCODING 375
SWIDTH 1000 0
DWIDTH 16 0
BBX 15 13 1 -1
BITMAP
0100
0380
06C0
0000
F07E
3018
3018
3018
3018
1FF8
0018
E018
3FF0
ENDCHAR
STARTCHAR U+0178
ENCODING 376
SWIDTH 1000 0
DWIDTH 16 0
BBX 14 13 1 0
BITMAP
0CC0
0CC0
0000
F87C
3030
1860
0CC0
0780
0300
0300
0300
0300
0FC0
ENDCHAR
STARTCHAR U+0179
ENCODING 377
SWIDTH 1000 0
DWIDTH 16 0
BBX 14 13 1 0
BITMAP
0180
0300
0000
7FF8
C070
00E0
01C0
0380
0700
0E00
1C00
380C
7FF8
ENDCHAR
STARTCHAR U+017A
ENCODING 378
SWIDTH 1000 0
DWIDTH 16 0
BBX 15 12 1 0
BITMAP
0180
0300
0200
0000
7FFC
C01C
0070
01C0
0700
1C00
7006
7FFC
ENDCHAR
STARTCHAR U+017B
ENCODING 379
SWIDTH 1000 0
DWIDTH 16 0
BBX 14 13 1 0
BITMAP
0300
0300
0000
7FF8
C070
00E0
01C0
0380
0700
0E00
1C00
380C
7FF8
ENDCHAR
STARTCHAR U+017C
ENCODING 380
SWIDTH 1000 0
DWIDTH 16 0
BBX 15 11 1 0
BITMAP
0300
0300
0000
7FFC
C01C
0070
01C0
0700
1C00
7006
7FFC
ENDCHAR
STARTCHAR U+017D
ENCODING 381
SWIDTH 1000 0
DWIDTH 16 0
BBX 14 13 1 0
BITMAP
06C0
0380
0000
7FF8
C070
00E0
01C0
0380
0700
0E00
1C00
380C
7FF8
ENDCHAR
STARTCHAR U+017E
ENCODING 382
SWIDTH 1000 0
DWIDTH 16 0
BBX 15 12 1 0
BITMAP
06C0
0380
0100
0000
7FFC
C01C
0070
01C0
0700
1C00
7006
7FFC
ENDCHAR
STARTCHAR U+0180
ENCODING 384
SWIDTH 1000 0
DWIDTH 16 0
BBX 14 11 1 0
BITMAP
F000
3000
FF00
3000
3FF0
3018
300C
300C
300C
380C
E7F8
ENDCHAR
STARTCHAR U+0181
ENCODING 385
SWIDTH 1000 0
DWIDTH 16 0
BBX 14 11 1 0
BITMAP
7FE0
9830
9818
D818
1830
1FF0
1818
180C
180C
1818
7FF0
ENDCHAR
STARTCHAR U+0187
ENCODING 391
SWIDTH 1000 0
DWIDTH 16 0
BBX 14 13 2 0
BITMAP
0038
004C
0040
3FE0
6030
C018
C000
C000
C000
C000
C018
6030
3FE0
ENDCHAR
STARTCHAR U+0188
ENCODING 392
SWIDTH 1000 0
DWIDTH 16 0
BBX 15 11 1 0
BITMAP
001C
0026
0020
3FF0
6018
C000
C000
C000
C000
600E
3FF8
ENDCHAR
STARTCHAR U+0189
ENCODING 393
SWIDTH 1000 0
DWIDTH 16 0
BBX 13 11 1 0
BITMAP
FFC0
3060
3030
3018
3018
FF18
3018
3018
3030
3060
FFC0
ENDCHAR
STARTCHAR U+018A
ENCODING 394
SWIDTH 1000 0
DWIDTH 16 0
BBX 14 11 1 0
BITMAP
7FE0
9830
9818
D80C
180C
180C
180C
180C
1818
1830
7FE0
ENDCHAR
STARTCHAR U+018E
ENCODING 398
SWIDTH 1000 0
DWIDTH 16 0
BBX 14 11 1 0
BITMAP
7FFC
C030
0030
0030
0030
1FF0
0030
0030
0030
C030
7FFC
ENDCHAR
STARTCHAR U+0193
ENCODING 403
SWIDTH 1000 0
DWIDTH 16 0
BBX 14 13 2 0
BITMAP
0070
0098
0080
3FC0
6060
C030
C000
C000
C3FC
C030
C030
6060
3FC0
ENDCHAR
STARTCHAR U+01C3
ENCODING 451
SWIDTH 1000 0
DWIDTH 16 0
BBX 4 12 6 -1
BITMAP
60
F0
F0
F0
F0
60
60
60
00
60
F0
60
ENDCHAR
STARTCHAR U+01CD
ENCODING 461
SWIDTH 1000 0
DWIDTH 16 0
BBX 15 13 1 0
BITMAP
06C0
0380
0000
1F80
06C0
0440
0C60
0C60
1FF0
1830
3018
3018
FC7E
ENDCHAR
STARTCHAR U+01CE
ENCODING 462
SWIDTH 1000 0
DWIDTH 16 0
BBX 15 12 1 0
BITMAP
06C0
0380
0100
0000
3FF0
E018
0018
1FF8
3018
6018
6038
3FCE
ENDCHAR
STARTCHAR U+01CF
ENCODING 463
SWIDTH 1000 0
DWIDTH 16 0
BBX 12 13 2 0
BITMAP
0D80
0700
0000
FFF0
0600
0600
0600
0600
0600
0600
0600
0600
FFF0
ENDCHAR
STARTCHAR U+01D0
ENCODING 464
SWIDTH 1000 0
DWIDTH 16 0
BBX 15 12 1 0
BITMAP
06C0
0380
0100
0000
0000
3F80
0180
0180
0180
0180
0180
FFFE
ENDCHAR
STARTCHAR U+01D1
ENCODING 465
SWIDTH 1000 0
DWIDTH 16 0
BBX 12 13 2 0
BITMAP
0D80
0700
0000
3FC0
6060
C030
C030
C030
C030
C030
C030
6060
3FC0
ENDCHAR
STARTCHAR U+01D2
ENCODING 466
SWIDTH 1000 0
DWIDTH 16 0
BBX 14 12 1 0
BITMAP
06C0
0380
0100
0000
3FF0
6018
C00C
C00C
C00C
C00C
6018
3FF0
ENDCHAR
STARTCHAR U+01D3
ENCODING 467
SWIDTH 1000 0
DWIDTH 16 0
BBX 15 13 1 0
BITMAP
06C0
0380
0000
F83E
3018
3018
3018
3018
3018
3018
3018
1830
0FE0
ENDCHAR
STARTCHAR U+01D4
ENCODING 468
SWIDTH 1000 0
DWIDTH 16 0
BBX 15 12 1 0
BITMAP
06C0
0380
0100
0000
F078
3018
3018
3018
3018
3018
3038
1FCE
ENDCHAR
STARTCHAR U+01DD
ENCODING 477
SWIDTH 1000 0
DWIDTH 16 0
BBX 15 8 1 0
BITMAP
1FF8
300C
3006
1FFE
0006
0006
E00C
3FF8
ENDCHAR
STARTCHAR U+01E2
ENCODING 482
SWIDTH 1000 0
DWIDTH 16 0
BBX 14 13 1 0
BITMAP
03E0
03E0
0000
3FF8
0D8C
0980
1980
1FF0
3180
3180
6180
618C
F3F8
ENDCHAR
STARTCHAR U+01E3
ENCODING 483
SWIDTH 1000 0
DWIDTH 16 0
BBX 14 11 1 0
BITMAP
07C0
07C0
0000
7CF8
C78C
030C
3FF8
6300
C300
C38C
7CF8
ENDCHAR
STARTCHAR U+01E6
ENCODING 486
SWIDTH 1000 0
DWIDTH 16 0
BBX 14 13 2 0
BITMAP
0D80
0700
0000
3FC0
6060
C030
C000
C000
C3FC
C030
C030
6060
3FC0
ENDCHAR
STARTCHAR U+01E7
ENCODING 487
SWIDTH 1000 0
DWIDTH 16 0
BBX 15 13 1 -1
BITMAP
06C0
0380
0100
0000
1FCE
3038
6018
6018
3018
1FF8
0018
E018
3FF0
ENDCHAR
STARTCHAR U+01EA
ENCODING 490
SWIDTH 1000 0
DWIDTH 16 0
BBX 12 14 2 -3
BITMAP
3FC0
6060
C030
C030
C030
C030
C030
C030
C030
6060
3FC0
0600
0C00
0700
ENDCHAR
STARTCHAR U+01EB
ENCODING 491
SWIDTH 1000 0
DWIDTH 16 0
BBX 14 11 1 -3
BITMAP
3FF0
6018
C00C
C00C
C00C
C00C
6018
3FF0
0300
0600
0380
ENDCHAR
STARTCHAR U+01EC
ENCODING 492
SWIDTH 1000 0
DWIDTH 16 0
BBX 12 16 2 -3
BITMAP
0F80
0F80
0000
3FC0
6060
C030
C030
C030
C030
C030
C030
6060
3FC0
0600
0C00
0700
ENDCHAR
STARTCHAR U+01ED
ENCODING 493
SWIDTH 1000 0
DWIDTH 16 0
BBX 14 14 1 -3
BITMAP
07C0
07C0
0000
3FF0
6018
C00C
C00C
C00C
C00C
6018
3FF0
0300
0600
0380
ENDCHAR
STARTCHAR U+01F0
ENCODING 496
SWIDTH 1000 0
DWIDTH 16 0
BBX 14 13 1 -1
BITMAP
006C
0038
0010
0000
0000
07F8
0018
0018
0018
0018
0018
E018
3FF0
ENDCHAR
STARTCHAR U+01F4
ENCODING 500
SWIDTH 1000 0
DWIDTH 16 0
BBX 14 13 2 0
BITMAP
0300
0600
0000
3FC0
6060
C030
C000
C000
C3FC
C030
C030
6060
3FC0
ENDCHAR
STARTCHAR U+01F5
ENCODING 501
SWIDTH 1000 0
DWIDTH 16 0
BBX 15 13 1 -1
BITMAP
00C0
0180
0100
0000
1FCE
3038
6018
6018
3018
1FF8
0018
E018
3FF0
ENDCHAR
STARTCHAR U+01F8
ENCODING 504
SWIDTH 1000 0
DWIDTH 16 0
BBX 15 13 1 0
BITMAP
0440
0380
0000
F07E
3818
3C18
3618
3318
3198
30D8
3078
3038
FC18
ENDCHAR
STARTCHAR U+01F9
ENCODING 505
SWIDTH 1000 0
DWIDTH 16 0
BBX 15 12 1 0
BITMAP
0440
0380
0000
0000
E7E0
3830
3018
3018
3018
3018
3018
FC1E
ENDCHAR
STARTCHAR U+01FC
ENCODING 508
SWIDTH 1000 0
DWIDTH 16 0
BBX 14 13 1 0
BITMAP
00C0
0180
0000
3FF8
0D8C
0980
1980
1FF0
3180
3180
6180
618C
F3F8
ENDCHAR
STARTCHAR U+01FD
ENCODING 509
SWIDTH 1000 0
DWIDTH 16 0
BBX 14 12 1 0
BITMAP
0180
0300
0200
0000
7CF8
C78C
030C
3FF8
6300
C300
C38C
7CF8
ENDCHAR
STARTCHAR U+01FE
ENCODING 510
SWIDTH 1000 0
DWIDTH 16 0
BBX 12 13 2 0
BITMAP
0300
0600
0000
3F70
60E0
C1B0
C330
C630
CC30
D830
F030
6060
DFC0
ENDCHAR
STARTCHAR U+01FF
ENCODING 511
SWIDTH 1000 0
DWIDTH 16 0
BBX 13 12 2 0
BITMAP
0180
0300
0200
0000
3FE8
6038
C0F0
C398
CE18
7818
E030
BFE0
ENDCHAR
STARTCHAR U+0202
ENCODING 514
SWIDTH 1000 0
DWIDTH 16 0
BBX 15 13 1 0
BITMAP
0700
0880
0000
1F80
06C0
0440
0C60
0C60
1FF0
1830
3018
3018
FC7E
ENDCHAR
STARTCHAR U+0203
ENCODING 515
SWIDTH 1000 0
DWIDTH 16 0
BBX 15 12 1 0
BITMAP
0380
0440
0000
0000
3FF0
E018
0018
1FF8
3018
6018
6038
3FCE
ENDCHAR
STARTCHAR U+0206
ENCODING 518
SWIDTH 1000 0
DWIDTH 16 0
BBX 14 13 1 0
BITMAP
0380
0440
0000
FFF8
300C
3000
3000
3FE0
3000
3000
3000
300C
FFF8
ENDCHAR
STARTCHAR U+0207
ENCODING 519
SWIDTH 1000 0
DWIDTH 16 0
BBX 15 12 1 0
BITMAP
0380
0440
0000
0000
3FF0
6018
C018
FFF0
C000
C000
600E
3FF8
ENDCHAR
STARTCHAR U+020A
ENCODING 522
SWIDTH 1000 0
DWIDTH 16 0
BBX 12 13 2 0
BITMAP
0E00
1100
0000
FFF0
0600
0600
0600
0600
0600
0600
0600
0600
FFF0
ENDCHAR
STARTCHAR U+020B
ENCODING 523
SWIDTH 1000 0
DWIDTH 16 0
BBX 15 12 1 0
BITMAP
0380
0440
0000
0000
0000
3F80
0180
0180
0180
0180
0180
FFFE
ENDCHAR
STARTCHAR U+020E
ENCODING 526
SWIDTH 1000 0
DWIDTH 16 0
BBX 12 13 2 0
BITMAP
0700
0880
0000
3FC0
6060
C030
C030
C030
C030
C030
C030
6060
3FC0
ENDCHAR
STARTCHAR U+020F
ENCODING 527
SWIDTH 1000 0
DWIDTH 16 0
BBX 14 12 1 0
BITMAP
0380
0440
0000
0000
3FF0
6018
C00C
C00C
C00C
C00C
6018
3FF0
ENDCHAR
STARTCHAR U+0212
ENCODING 530
SWIDTH 1000 0
DWIDTH 16 0
BBX 15 13 1 0
BITMAP
0380
0440
0000
FFE0
3030
3018
3018
3FF0
3180
30C0
3060
3030
F87E
ENDCHAR
STARTCHAR U+0213
ENCODING 531
SWIDTH 1000 0
DWIDTH 16 0
BBX 15 12 1 0
BITMAP
01C0
0220
0000
0000
F3F8
1C0E
1800
1800
1800
1800
1800
FF00
ENDCHAR
STARTCHAR U+0216
ENCODING 534
SWIDTH 1000 0
DWIDTH 16 0
BBX 15 13 1 0
BITMAP
0380
0440
0000
F83E
3018
3018
3018
3018
3018
3018
3018
1830
0FE0
ENDCHAR
STARTCHAR U+0217
ENCODING 535
SWIDTH 1000 0
DWIDTH 16 0
BBX 15 12 1 0
BITMAP
0380
0440
0000
0000
F078
3018
3018
3018
3018
3018
3038
1FCE
ENDCHAR
STARTCHAR U+0218
ENCODING 536
SWIDTH 1000 0
DWIDTH 16 0
BBX 13 14 2 -3
BITMAP
3FE0
7030
E000
E000
7000
3FC0
0070
0038
0038
C070
7FC0
0000
0600
0C00
ENDCHAR
STARTCHAR U+0219
ENCODING 537
SWIDTH 1000 0
DWIDTH 16 0
BBX 15 11 1 -3
BITMAP
1FF8
700E
7000
1FF0
0018
000C
E00C
3FF8
0000
0180
0300
ENDCHAR
STARTCHAR U+021A
ENCODING 538
SWIDTH 1000 0
DWIDTH 16 0
BBX 14 14 1 -3
BITMAP
7FF8
C30C
0300
0300
0300
0300
0300
0300
0300
0300
0FC0
0000
0300
0600
ENDCHAR
STARTCHAR U+021B
ENCODING 539
SWIDTH 1000 0
DWIDTH 16 0
BBX 15 13 1 -3
BITMAP
0C00
0C00
0C00
FFF0
0C00
0C00
0C00
0C00
0C0E
03F8
0000
00C0
0180
ENDCHAR
STARTCHAR U+021E
ENCODING 542
SWIDTH 1000 0
DWIDTH 16 0
BBX 15 13 1 0
BITMAP
06C0
0380
0000
F83E
3018
3018
3018
3FF8
3018
3018
3018
3018
F83E
ENDCHAR
STARTCHAR U+021F
ENCODING 543
SWIDTH 1000 0
DWIDTH 16 0
BBX 15 13 1 0
BITMAP
1B00
0E00
0400
F000
3000
3000
3FF0
3018
3018
3018
3018
3018
FC1E
ENDCHAR
STARTCHAR U+0226
ENCODING 550
SWIDTH 1000 0
DWIDTH 16 0
BBX 15 13 1 0
BITMAP
0300
0300
0000
1F80
06C0
0440
0C60
0C60
1FF0
1830
3018
3018
FC7E
ENDCHAR
STARTCHAR U+0227
ENCODING 551
SWIDTH 1000 0
DWIDTH 16 0
BBX 15 11 1 0
BITMAP
0300
0300
0000
3FF0
E018
0018
1FF8
3018
6018
6038
3FCE
ENDCHAR
STARTCHAR U+0228
ENCODING 552
SWIDTH 1000 0
DWIDTH 16 0
BBX 14 13 1 -3
BITMAP
FFF8
300C
3000
3000
3FE0
3000
3000
3000
300C
FFF8
0180
00C0
0380
ENDCHAR
STARTCHAR U+0229
ENCODING 553
SWIDTH 1000 0
DWIDTH 16 0
BBX 15 11 1 -3
BITMAP
3FF0
6018
C018
FFF0
C000
C000
600E
3FF8
0180
00C0
0380
ENDCHAR
STARTCHAR U+022E
ENCODING 558
SWIDTH 1000 0
DWIDTH 16 0
BBX 12 13 2 0
BITMAP
0600
0600
0000
3FC0
6060
C030
C030
C030
C030
C030
C030
6060
3FC0
ENDCHAR
STARTCHAR U+022F
ENCODING 559
SWIDTH 1000 0
DWIDTH 16 0
BBX 14 11 1 0
BITMAP
0300
0300
0000
3FF0
6018
C00C
C00C
C00C
C00C
6018
3FF0
ENDCHAR
STARTCHAR U+0232
ENCODING 562
SWIDTH 1000 0
DWIDTH 16 0
BBX 14 13 1 0
BITMAP
0780
0780
0000
F87C
3030
1860
0CC0
0780
0300
0300
0300
0300
0FC0
ENDCHAR
STARTCHAR U+0233
ENCODING 563
SWIDTH 1000 0
DWIDTH 16 0
BBX 15 12 1 -1
BITMAP
07C0
07C0
0000
F07E
3018
3018
3018
3018
1FF8
0018
E018
3FF0
ENDCHAR
STARTCHAR U+0237
ENCODING 567
SWIDTH 1000 0
DWIDTH 16 0
BBX 13 8 1 -1
BITMAP
07F8
0018
0018
0018
0018
0018
E018
3FF0
ENDCHAR
STARTCHAR U+2020
ENCODING 8224
SWIDTH 1000 0
DWIDTH 16 0
BBX 10 13 3 -2
BITMAP
0C00
0C00
0C00
FFC0
FFC0
0C00
0C00
0C00
0C00
0C00
0C00
0C00
0C00
ENDCHAR
STARTCHAR U+2021
ENCODING 8225
SWIDTH 1000 0
DWIDTH 16 0
BBX 10 13 3 -2
BITMAP
0C00
0C00
0C00
FFC0
FFC0
0C00
0C00
0C00
FFC0
FFC0
0C00
0C00
0C00
ENDCHAR
STARTCHAR U+2022
ENCODING 8226
SWIDTH 1000 0
DWIDTH 16 0
BBX 4 4 6 3
BITMAP
60
F0
F0
60
ENDCHAR
STARTCHAR U+2039
ENCODING 8249
SWIDTH 1000 0
DWIDTH 16 0
BBX 7 5 5 3
BITMAP
0E
38
E0
38
0E
ENDCHAR
STARTCHAR U+203A
ENCODING 8250
SWIDTH 1000 0
DWIDTH 16 0
BBX 7 5 5 3
BITMAP
E0
38
0E
38
E0
ENDCHAR
STARTCHAR U+20AC
ENCODING 8364
SWIDTH 1000 0
DWIDTH 16 0
BBX 12 12 2 0
BITMAP
0FE0
1FF0
3810
FF00
FF00
3000
3000
FF00
FF00
3810
1FF0
0FE0
ENDCHAR
STARTCHAR U+22C5
ENCODING 8901
SWIDTH 1000 0
DWIDTH 16 0
BBX 2 1 7 4
BITMAP
C0
ENDCHAR
ENDFONT
